<?xml version="1.0" encoding="iso-8859-1"?>
<!-- Generator: Adobe Illustrator 19.0.0, SVG Export Plug-In . SVG Version: 6.00 Build 0)  -->
<svg version="1.1" id="Layer_1" xmlns="http://www.w3.org/2000/svg" xmlns:xlink="http://www.w3.org/1999/xlink" x="0px" y="0px"
	 viewBox="0 0 512 512" style="enable-background:new 0 0 512 512;" xml:space="preserve">
<circle style="fill:#E16B5A;" cx="256" cy="256" r="256"/>
<g>
	<path style="fill:#263740;" d="M145.124,417.228c-3.712-2.412-4.756-7.364-2.352-11.072l37.036-57.028
		c2.408-3.708,7.36-4.76,11.068-2.356c3.704,2.412,4.756,7.364,2.352,11.072l-37.036,57.032
		C153.784,418.58,148.832,419.632,145.124,417.228z"/>
	<path style="fill:#263740;" d="M366.876,417.228c3.712-2.412,4.756-7.364,2.352-11.072l-37.036-57.028
		c-2.408-3.708-7.36-4.76-11.068-2.356c-3.704,2.412-4.756,7.364-2.352,11.072l37.036,57.032
		C358.216,418.58,363.168,419.632,366.876,417.228z"/>
</g>
<path style="fill:#242424;" d="M252,200c-4.416,0-8-3.584-8-8v-68c0-4.416,3.584-8,8-8c4.416,0,8,3.584,8,8v68
	C260,196.42,256.416,200,252,200z"/>
<path style="fill:#2D4452;" d="M428,148c0,8.836-7.164,16-16,16H96c-8.836,0-16-7.164-16-16l0,0c0-8.836,7.164-16,16-16h316
	C420.836,132,428,139.164,428,148L428,148z"/>
<path style="fill:#E6E6E6;" d="M412,164v184c0,8.8-7.2,16-16,16H112c-8.8,0-16-7.2-16-16V164H412z"/>
<g>
	<path style="fill:#CC584C;" d="M232,244c-1.024,0-2.048-0.392-2.828-1.172c-1.564-1.564-1.564-4.092,0-5.656l20-20
		c1.564-1.564,4.092-1.564,5.656,0c1.564,1.564,1.564,4.092,0,5.656l-20,20C234.048,243.608,233.024,244,232,244z"/>
	<path style="fill:#CC584C;" d="M252,244c-1.024,0-2.048-0.392-2.828-1.172l-20-20c-1.564-1.564-1.564-4.092,0-5.656
		s4.092-1.564,5.656,0l20,20c1.564,1.564,1.564,4.092,0,5.656C254.048,243.608,253.024,244,252,244z"/>
	<path style="fill:#CC584C;" d="M252,340c-1.024,0-2.048-0.392-2.828-1.172c-1.564-1.564-1.564-4.092,0-5.656l20-20
		c1.564-1.564,4.092-1.564,5.656,0s1.564,4.092,0,5.656l-20,20C254.048,339.608,253.024,340,252,340z"/>
	<path style="fill:#CC584C;" d="M272,340c-1.024,0-2.048-0.392-2.828-1.172l-20-20c-1.564-1.564-1.564-4.092,0-5.656
		s4.092-1.564,5.656,0l20,20c1.564,1.564,1.564,4.092,0,5.656C274.048,339.608,273.024,340,272,340z"/>
	<path style="fill:#CC584C;" d="M284,296c-1.024,0-2.048-0.392-2.828-1.172c-1.564-1.564-1.564-4.092,0-5.656l20-20
		c1.564-1.564,4.092-1.564,5.656,0s1.564,4.092,0,5.656l-20,20C286.048,295.608,285.024,296,284,296z"/>
	<path style="fill:#CC584C;" d="M304,296c-1.024,0-2.048-0.392-2.828-1.172l-20-20c-1.564-1.564-1.564-4.092,0-5.656
		s4.092-1.564,5.656,0l20,20c1.564,1.564,1.564,4.092,0,5.656C306.048,295.608,305.024,296,304,296z"/>
</g>
<g>
	<path style="fill:#406A80;" d="M300,216c-8.824,0-16-7.176-16-16s7.176-16,16-16s16,7.176,16,16S308.824,216,300,216z M300,192
		c-4.412,0-8,3.588-8,8s3.588,8,8,8s8-3.588,8-8S304.412,192,300,192z"/>
	<path style="fill:#406A80;" d="M216,332c-8.824,0-16-7.176-16-16s7.176-16,16-16s16,7.176,16,16S224.824,332,216,332z M216,308
		c-4.412,0-8,3.584-8,8s3.588,8,8,8s8-3.584,8-8S220.412,308,216,308z"/>
	<path style="fill:#406A80;" d="M216,292c-2.212,0-4-1.792-4-4c0-22.444,26.144-27.352,49.212-31.676
		C279.1,252.972,296,249.804,296,240v-8c0-2.208,1.788-4,4-4s4,1.792,4,4v8c0,16.44-21.004,20.38-41.316,24.188
		C237.692,268.872,220,273.324,220,288C220,290.208,218.212,292,216,292z"/>
	<path style="fill:#406A80;" d="M312,240c-1.024,0-2.048-0.392-2.828-1.172L300,229.656l-9.172,9.172
		c-1.564,1.564-4.092,1.564-5.656,0s-1.564-4.092,0-5.656l12-12c1.564-1.564,4.092-1.564,5.656,0l12,12
		c1.564,1.564,1.564,4.092,0,5.656C314.048,239.608,313.024,240,312,240z"/>
</g>
<rect x="96" y="164" style="fill:#B3B3B3;" width="316" height="4"/>
<g>
</g>
<g>
</g>
<g>
</g>
<g>
</g>
<g>
</g>
<g>
</g>
<g>
</g>
<g>
</g>
<g>
</g>
<g>
</g>
<g>
</g>
<g>
</g>
<g>
</g>
<g>
</g>
<g>
</g>
</svg>
